<svg version="1.0" xmlns="http://www.w3.org/2000/svg"
 width="600.000000pt" height="900.000000pt" viewBox="0 0 600.000000 900.000000"
 preserveAspectRatio="xMidYMid meet">
<metadata>
Created by potrace 1.16, written by Peter Selinger 2001-2019
</metadata>
<g transform="translate(0.000000,900.000000) scale(0.100000,-0.100000)" stroke="none">
<path d="M135 8981 c-22 -10 -54 -34 -72 -52 -68 -72 -63 99 -63 -2092 l0
-1984 49 -7 c67 -9 162 -58 206 -108 64 -70 90 -139 90 -238 0 -99 -26 -168
-90 -238 -44 -50 -139 -99 -206 -108 l-49 -7 0 -1984 c0 -2191 -5 -2020 63
-2092 18 -18 50 -42 72 -52 39 -18 134 -19 2865 -19 2731 0 2826 1 2865 19 22
10 54 34 72 52 68 72 63 -99 63 2092 l0 1984 -49 7 c-67 9 -162 58 -206 108
-64 70 -90 139 -90 238 0 99 26 168 90 238 44 50 139 99 206 108 l49 7 0 1984
c0 2191 5 2020 -63 2092 -18 18 -50 42 -72 52 -39 18 -134 19 -2865 19 -2731
0 -2826 -1 -2865 -19z"/>
</g>
</svg>