<svg version="1.0" class="fill-indigo-600" xmlns="http://www.w3.org/2000/svg"
 width="583.000000pt" height="583.000000pt" viewBox="0 0 583.000000 583.000000"
 preserveAspectRatio="xMidYMid meet">

<g transform="translate(0.000000,583.000000) scale(0.100000,-0.100000)"
fill="#000000" stroke="none">
<path d="M1352 5403 l3 -218 44 -6 c42 -5 71 -28 71 -54 0 -29 -32 -54 -73
-57 l-42 -3 0 -1555 0 -1555 24 -139 c80 -469 258 -821 561 -1110 268 -254
575 -414 940 -488 102 -20 142 -23 360 -23 227 1 254 3 371 27 370 80 677 247
944 513 361 361 545 808 545 1320 0 508 -188 963 -545 1320 -194 194 -416 339
-658 429 -224 84 -409 116 -667 116 -224 0 -404 -28 -582 -89 -31 -11 -59 -17
-62 -14 -3 4 -6 285 -6 625 l0 618 -39 0 c-95 0 -141 50 -91 100 15 15 33 20
75 20 l55 0 0 220 0 220 -184 0 -184 0 -7 -40 c-10 -57 -62 -129 -118 -164
-142 -88 -336 -5 -379 162 l-10 42 -174 0 -174 0 2 -217z m408 -243 c24 -24
25 -38 4 -68 -14 -20 -23 -22 -116 -22 -110 0 -138 11 -138 56 0 40 35 54 137
54 80 0 96 -3 113 -20z m316 -5 c18 -24 18 -46 0 -71 -13 -16 -26 -19 -103
-18 -113 1 -141 8 -149 38 -15 60 25 76 175 72 49 -2 66 -6 77 -21z m292 9
c32 -22 27 -73 -8 -92 -40 -20 -192 -12 -219 12 -26 24 -27 50 -1 76 17 17 33
20 113 20 69 0 98 -4 115 -16z m1084 -2478 c99 -35 170 -80 253 -161 161 -158
229 -398 175 -622 -73 -306 -334 -514 -645 -514 -256 0 -489 145 -598 372 -53
109 -69 179 -69 294 0 116 17 186 70 295 147 300 499 445 814 336z"/>
</g>
</svg>
